<svg width="114" height="44" viewBox="0 0 114 44" fill="none" xmlns="http://www.w3.org/2000/svg">
<path d="M38.225 30.5369V12.8619H40.025V28.9119H49.95V30.5369H38.225ZM56.9508 30.6869C55.5674 30.6869 54.4174 30.4035 53.5008 29.8369C52.5841 29.2535 51.9008 28.4535 51.4508 27.4369C51.0008 26.4202 50.7758 25.2619 50.7758 23.9619C50.7758 22.6619 51.0091 21.5119 51.4758 20.5119C51.9424 19.4952 52.6341 18.6952 53.5508 18.1119C54.4674 17.5119 55.5924 17.2119 56.9258 17.2119C57.9258 17.2119 58.7841 17.3952 59.5008 17.7619C60.2341 18.1285 60.8341 18.6285 61.3008 19.2619C61.7841 19.8952 62.1341 20.5952 62.3508 21.3619C62.5841 22.1285 62.7008 22.9119 62.7008 23.7119C62.6841 23.8619 62.6758 24.0119 62.6758 24.1619C62.6758 24.2952 62.6674 24.4285 62.6508 24.5619H52.5508C52.6174 25.4452 52.8174 26.2369 53.1508 26.9369C53.4841 27.6202 53.9674 28.1619 54.6008 28.5619C55.2508 28.9452 56.0591 29.1369 57.0258 29.1369C57.4758 29.1369 57.9341 29.0869 58.4008 28.9869C58.8674 28.8702 59.2924 28.6785 59.6758 28.4119C60.0591 28.1285 60.3424 27.7619 60.5258 27.3119H62.3758C62.1424 28.0952 61.7508 28.7369 61.2008 29.2369C60.6508 29.7369 60.0008 30.1035 59.2508 30.3369C58.5008 30.5702 57.7341 30.6869 56.9508 30.6869ZM52.6008 23.0369H60.9008C60.8841 22.2202 60.7091 21.4952 60.3758 20.8619C60.0424 20.2119 59.5841 19.7035 59.0008 19.3369C58.4174 18.9535 57.7008 18.7619 56.8508 18.7619C55.9674 18.7619 55.2174 18.9619 54.6008 19.3619C53.9841 19.7619 53.5091 20.2869 53.1758 20.9369C52.8591 21.5869 52.6674 22.2869 52.6008 23.0369ZM69.9807 30.5369C69.014 30.5369 68.2307 30.3869 67.6307 30.0869C67.0307 29.7869 66.589 29.3285 66.3057 28.7119C66.0223 28.0785 65.8807 27.2785 65.8807 26.3119V18.9119H63.6807V17.3619H65.8807V13.4369H67.6557V17.3619H71.3057V18.9119H67.6557V26.1369C67.6557 27.1035 67.839 27.8285 68.2057 28.3119C68.5723 28.7785 69.289 29.0119 70.3557 29.0119H71.2307V30.5369H69.9807ZM72.8109 30.5369V17.3619H74.5109L74.5859 19.7119C74.9193 19.0785 75.3276 18.5869 75.8109 18.2369C76.3109 17.8869 76.8526 17.6369 77.4359 17.4869C78.0359 17.3202 78.6443 17.2369 79.2609 17.2369C79.3609 17.2369 79.4526 17.2369 79.5359 17.2369C79.6193 17.2369 79.7109 17.2369 79.8109 17.2369V18.8619H79.2359C78.1359 18.8619 77.2359 19.0952 76.5359 19.5619C75.8526 20.0285 75.3526 20.6619 75.0359 21.4619C74.7359 22.2619 74.5859 23.1535 74.5859 24.1369V30.5369H72.8109ZM86.44 30.6869C84.6067 30.6869 83.2317 30.1952 82.315 29.2119C81.415 28.2285 80.965 26.7619 80.965 24.8119V17.3619H82.74V24.7619C82.74 25.6452 82.865 26.4202 83.115 27.0869C83.3817 27.7369 83.7817 28.2452 84.315 28.6119C84.865 28.9619 85.5734 29.1369 86.44 29.1369C87.3234 29.1369 88.04 28.9619 88.59 28.6119C89.1567 28.2619 89.565 27.7619 89.815 27.1119C90.065 26.4452 90.19 25.6619 90.19 24.7619V17.3619H91.965V24.8119C91.965 26.7619 91.5067 28.2285 90.59 29.2119C89.6734 30.1952 88.29 30.6869 86.44 30.6869ZM94.3705 30.5369V17.3619H96.0705L96.1205 19.2369C96.4205 18.7202 96.7705 18.3202 97.1705 18.0369C97.5872 17.7369 98.0288 17.5285 98.4955 17.4119C98.9622 17.2785 99.4288 17.2119 99.8955 17.2119C100.829 17.2119 101.596 17.4369 102.196 17.8869C102.812 18.3369 103.254 18.9535 103.521 19.7369C103.754 19.2702 104.054 18.8452 104.421 18.4619C104.787 18.0785 105.237 17.7785 105.771 17.5619C106.304 17.3285 106.912 17.2119 107.596 17.2119C108.562 17.2119 109.346 17.4202 109.946 17.8369C110.546 18.2369 110.979 18.7869 111.246 19.4869C111.529 20.1869 111.671 20.9785 111.671 21.8619V30.5369H109.896V22.8119C109.896 22.3285 109.871 21.8535 109.821 21.3869C109.771 20.9035 109.654 20.4702 109.471 20.0869C109.287 19.6869 109.012 19.3702 108.646 19.1369C108.296 18.8869 107.812 18.7619 107.196 18.7619C106.596 18.7619 106.087 18.9035 105.671 19.1869C105.271 19.4535 104.937 19.8202 104.671 20.2869C104.421 20.7369 104.237 21.2369 104.121 21.7869C104.021 22.3202 103.971 22.8452 103.971 23.3619V30.5369H102.196V22.9869C102.196 22.5369 102.162 22.0702 102.096 21.5869C102.046 21.0869 101.937 20.6202 101.771 20.1869C101.604 19.7535 101.337 19.4119 100.971 19.1619C100.604 18.8952 100.121 18.7619 99.5205 18.7619C98.6538 18.7619 97.9705 19.0035 97.4705 19.4869C96.9872 19.9535 96.6455 20.5535 96.4455 21.2869C96.2455 22.0035 96.1455 22.7369 96.1455 23.4869V30.5369H94.3705Z" fill="#041E3D"/>
<path d="M5.01123 17.1817V2.50566C5.01123 1.61078 5.83452 0.536926 7.69587 0.536926H22.9088M32.7525 9.6647L23.6247 0.536926H22.9088M32.7525 9.6647H23.8037C23.5054 9.60505 22.9088 9.34255 22.9088 8.76982V0.536926M32.7525 9.6647V35.9742C32.7525 37.048 32.144 38.3009 30.4258 38.3009" stroke="#041E3D" stroke-width="1.07386"/>
<rect width="28.6362" height="31.1418" transform="translate(0 12.7073)" fill="#557CFB"/>
<path d="M21.2017 32.0112L21.6054 32.0969L20.1862 36.5992H7.33978V36.1465H7.96375C8.6652 36.1465 9.16682 35.9182 9.46861 35.4614C9.6399 35.2004 9.72554 34.5968 9.72554 33.6507V22.9453C9.72554 21.9094 9.61135 21.261 9.38297 21C9.06487 20.6411 8.59179 20.4617 7.96375 20.4617H7.33978V20.009H14.8519V20.4617C13.971 20.4535 13.3511 20.5351 12.9922 20.7064C12.6415 20.8777 12.4009 21.0938 12.2704 21.3548C12.1399 21.6158 12.0746 22.2398 12.0746 23.2267V33.6507C12.0746 34.3277 12.1399 34.7926 12.2704 35.0454C12.3682 35.2167 12.5191 35.3431 12.723 35.4247C12.927 35.5063 13.5632 35.547 14.6317 35.547H15.8429C17.1153 35.547 18.0084 35.4532 18.5223 35.2656C19.0361 35.078 19.5051 34.7477 19.9293 34.2746C20.3534 33.7934 20.7775 33.0389 21.2017 32.0112Z" fill="white"/>
</svg>
